<?xml version="1.0" encoding="UTF-8" standalone="no"?>
<svg
   id="Layer_1"
   data-name="Layer 1"
   viewBox="0 0 122.88 92.57"
   version="1.1"
   sodipodi:docname="abacus-icon.svg"
   inkscape:version="1.2.1 (9c6d41e410, 2022-07-14)"
   xmlns:inkscape="http://www.inkscape.org/namespaces/inkscape"
   xmlns:sodipodi="http://sodipodi.sourceforge.net/DTD/sodipodi-0.dtd"
   xmlns="http://www.w3.org/2000/svg"
   xmlns:svg="http://www.w3.org/2000/svg"
   xmlns:rdf="http://www.w3.org/1999/02/22-rdf-syntax-ns#"
   xmlns:cc="http://creativecommons.org/ns#"
   xmlns:dc="http://purl.org/dc/elements/1.1/">
  <sodipodi:namedview
     id="namedview22"
     pagecolor="#ffffff"
     bordercolor="#000000"
     borderopacity="0.25"
     inkscape:showpageshadow="2"
     inkscape:pageopacity="0"
     inkscape:pagecheckerboard="0"
     inkscape:deskcolor="#d1d1d1"
     showgrid="false"
     showborder="true"
     inkscape:zoom="6.6379582"
     inkscape:cx="26.062231"
     inkscape:cy="52.199786"
     inkscape:window-width="1920"
     inkscape:window-height="1001"
     inkscape:window-x="-9"
     inkscape:window-y="1341"
     inkscape:window-maximized="1"
     inkscape:current-layer="Layer_1" />
  <defs
     id="defs15">
    <style
       id="style13">.cls-1{fill-rule:evenodd;}</style>
  </defs>
  <title
     id="title17">abacus</title>
  <path
     class="cls-1"
     d="M14,0h0a6.4,6.4,0,0,1,6.38,6.38V16.82H33.94a9.86,9.86,0,0,1,19.24,0h6.59a9.86,9.86,0,0,1,19.24,0h23.5V6.38A6.4,6.4,0,0,1,108.89,0h0a6.4,6.4,0,0,1,6.38,6.38V81.9h5.11a2.5,2.5,0,0,1,2.5,2.49v5.68a2.5,2.5,0,0,1-2.5,2.5H2.5A2.5,2.5,0,0,1,0,90.07V84.39A2.5,2.5,0,0,1,2.5,81.9H7.61V6.38A6.4,6.4,0,0,1,14,0Zm6.38,21.18V40.79H55a9.87,9.87,0,0,1,19.24,0h6.59a9.87,9.87,0,0,1,19.24,0h2.42V21.18H79a9.87,9.87,0,0,1-19.24,0H53.18a9.87,9.87,0,0,1-19.24,0Zm52.87,35.9a9.86,9.86,0,0,1,9.62,7.68h19.65V45.15h-2.42a9.87,9.87,0,0,1-19.24,0H74.26a9.87,9.87,0,0,1-19.24,0H20.37V64.76H37.8a9.86,9.86,0,0,1,19.23,0h6.6a9.86,9.86,0,0,1,9.61-7.68Zm9.62,12a9.86,9.86,0,0,1-19.23,0H57a9.86,9.86,0,0,1-19.23,0H20.37V81.9h82.14V69.12Z"
     id="path19"
     inkscape:label="path19"
     style="image-rendering:auto" />
  <metadata
     id="metadata3037">
    <rdf:RDF>
      <cc:Work
         rdf:about="">
        <dc:title>abacus</dc:title>
      </cc:Work>
    </rdf:RDF>
  </metadata>
</svg>
